# xmcd
#
# Track frame offsets:
#	150
#	18631
#	34831
#	54662
#	70069
#	78185
#	114763
#	128115
#	141670
#	159243
#
# Disc length: 2334 seconds
#
# Revision: 0
# Processed by: cddbd v1.5PL3 Copyright (c) Steve Scherf et al.
# Submitted via: EasyCDDAExtractor 4.6.0.1
#
DISCID=80091c0a
DTITLE=Ioan Gyuri Pascu - Prinde o stea
DYEAR=2003
DGENRE=blues
TTITLE0=Prinde o stea
TTITLE1=Shiggy Bom Bom
TTITLE2=Nu mai fugi de tine
TTITLE3=Prieteni (Amigos para siempre)
TTITLE4=Loopul si mielul (instr.)
TTITLE5=Crazy Feelin' (live aprilie 2002)
TTITLE6=Fuga din Egipt (instr.)
TTITLE7=I Remember
TTITLE8=Dl. Veselie
TTITLE9=Vad nemarginirea
EXTD=
EXTT0=
EXTT1=
EXTT2=
EXTT3=
EXTT4=
EXTT5=
EXTT6=
EXTT7=
EXTT8=
EXTT9=
PLAYORDER=
